<svg width="701" height="701" viewBox="0 0 701 701" fill="none" xmlns="http://www.w3.org/2000/svg">
<g opacity="0.6">
<path d="M76.9062 288.594C85.625 294.406 97.9747 295.672 108.875 295.496C110.201 295.475 112.061 295.045 113.723 294.572C113.281 293.608 113.053 292.56 113.053 291.5C113.053 290.948 113.116 290.41 113.231 289.891L76.9062 288.594ZM116.322 291.5C116.322 293.827 118.173 295.678 120.5 295.678C122.827 295.678 124.678 293.827 124.678 291.5C124.678 289.173 122.827 287.322 120.5 287.322C118.173 287.322 116.322 289.173 116.322 291.5ZM121.233 284.089C122.877 284.252 124.369 284.957 125.527 286.02L144.816 255.206C135.423 259.851 128.152 269.912 122.854 279.441C122.211 280.597 121.654 282.417 121.233 284.089ZM122.735 298.601L139.776 330.712C140.45 320.255 135.372 308.926 129.769 299.574C129.087 298.435 127.783 297.041 126.541 295.836C125.611 297.126 124.28 298.111 122.735 298.601ZM127.289 288.455C127.723 289.412 127.947 290.45 127.947 291.5C127.947 292.55 127.723 293.588 127.29 294.545L164.094 295.859V287.141L127.289 288.455Z" fill="#0CABBA"/>
</g>
<g opacity="0.6">
<path d="M623.094 294.406C614.375 288.594 602.025 287.328 591.125 287.504C589.799 287.525 587.939 287.955 586.277 288.428C586.719 289.392 586.947 290.44 586.947 291.5C586.947 292.052 586.884 292.59 586.769 293.109L623.094 294.406ZM583.678 291.5C583.678 289.173 581.827 287.322 579.5 287.322C577.173 287.322 575.322 289.173 575.322 291.5C575.322 293.827 577.173 295.678 579.5 295.678C581.827 295.678 583.678 293.827 583.678 291.5ZM578.767 298.911C577.123 298.748 575.631 298.043 574.473 296.98L555.184 327.794C564.577 323.149 571.848 313.088 577.146 303.559C577.789 302.403 578.346 300.583 578.767 298.911ZM577.265 284.399L560.224 252.288C559.55 262.745 564.628 274.074 570.231 283.426C570.913 284.565 572.217 285.959 573.459 287.164C574.389 285.874 575.72 284.889 577.265 284.399ZM572.711 294.545C572.277 293.588 572.053 292.55 572.053 291.5C572.053 290.45 572.277 289.412 572.71 288.455L535.906 287.141V295.859L572.711 294.545Z" fill="#0CABBA"/>
</g>
<path d="M158.165 184.842L127.335 221.584M158.165 184.842L185.722 207.965L154.892 244.707L127.335 221.584M158.165 184.842L151.999 192.19L146.488 187.566L152.654 180.217L158.165 184.842ZM127.335 221.584L121.824 216.96L127.99 209.611L133.501 214.236L127.335 221.584ZM140.226 223.01L144.851 217.498M157.183 202.801L161.808 197.29M139.783 217.942L145.294 222.566" stroke="#0CABBA" stroke-width="4" stroke-linecap="round" stroke-linejoin="round"/>
<path d="M482.75 529.896V489.062M482.75 529.896H452.125V489.062H482.75M482.75 529.896V521.729H488.875V529.896H482.75ZM482.75 489.062H488.875V497.229H482.75V489.062ZM473.562 495.188V501.313M473.562 517.646V523.771M476.625 498.25H470.5" stroke="#0CABBA" stroke-width="3" stroke-linecap="round" stroke-linejoin="round"/>
<path d="M550.703 376.963L564.448 339.202M550.703 376.963L522.382 366.655L536.126 328.894L564.448 339.202M550.703 376.963L553.452 369.411L559.117 371.473L556.368 379.025L550.703 376.963ZM564.448 339.202L570.112 341.263L567.363 348.816L561.699 346.754L564.448 339.202ZM553.89 341.774L551.828 347.438M546.33 362.543L544.269 368.207M555.691 345.637L550.027 343.575" stroke="#0CABBA" stroke-width="3" stroke-linecap="round" stroke-linejoin="round"/>
<path d="M131.489 106.649C130.75 118.11 136.317 130.527 142.457 140.777C143.204 142.024 144.632 143.553 145.991 144.872C146.664 143.925 147.533 143.133 148.54 142.552C149.064 142.25 149.609 142.015 150.165 141.84L131.489 106.649ZM150.332 145.656C148.123 146.931 147.381 149.702 148.656 151.911C149.931 154.119 152.702 154.862 154.911 153.587C157.119 152.312 157.862 149.54 156.587 147.332C155.312 145.123 152.54 144.381 150.332 145.656ZM160.057 146.255C160.804 147.906 160.953 149.708 160.578 151.39L200.398 152.812C190.841 146.442 177.306 145.054 165.358 145.247C163.908 145.27 161.876 145.739 160.057 146.255ZM147.106 155.635L125.965 189.407C136.26 184.317 144.23 173.288 150.037 162.845C150.744 161.572 151.353 159.57 151.816 157.732C150.082 157.556 148.418 156.833 147.106 155.635ZM159.232 154.397C158.562 155.333 157.7 156.115 156.703 156.69C155.706 157.266 154.597 157.622 153.452 157.735L172.374 193.39L180.65 188.612L159.232 154.397Z" fill="#0CABBA"/>
<g opacity="0.8">
<mask id="path-7-inside-1_0_1" fill="white">
<path d="M489.712 243.493C477.071 243.572 478.315 266.894 462.565 255.89C456.717 251.813 453.12 245.886 445.776 244.083C439.361 242.509 432.789 244.146 426.452 245.24C419.25 246.484 410.71 247.043 405.248 252.498C399.966 257.748 397.172 264.792 391.552 270.074C380.682 280.306 376.093 291.475 383.13 305.942C389.899 319.85 404.059 327.399 419.337 326.407C434.347 325.407 449.94 316.702 449.507 338.513C449.349 346.226 450.963 351.579 453.332 358.749C455.528 365.361 455.379 371.768 455.882 378.592C456.811 391.344 459.157 405.638 465.485 416.901L477.292 400.246C478.748 398.184 481.794 395.295 482.518 392.863C483.801 388.557 481.275 381.158 480.983 376.333C480.692 371.508 480.834 366.62 480.094 361.796C479.055 355.034 475.056 348.698 474.505 342.015C473.49 329.571 475.765 319.638 466.178 309.232C456.921 299.197 443.352 296.788 430.388 298.827C423.855 299.85 397.558 304.053 408.113 289.122C410.199 286.186 413.843 283.777 416.188 280.983C418.227 278.551 419.998 274.08 422.391 272.183C424.784 270.286 435.772 268.106 438.92 269.074C442.069 270.042 445.351 274.584 448.082 276.599C453.129 280.399 459.017 282.927 465.249 283.966C476.001 285.54 498.481 279.291 498.308 265.501C498.276 258.889 492.137 249.68 489.712 243.493ZM365.255 356.963C361.059 339.3 337.06 333.397 324.12 323.818C316.682 318.308 310.062 309.799 300.294 309.106C295.792 308.784 292.022 309.76 287.559 308.603C283.466 307.548 280.255 305.344 275.894 305.919C267.747 306.989 262.608 315.695 253.855 314.514C245.551 313.396 236.995 303.683 235.106 295.773C232.682 285.603 240.726 282.305 249.345 281.4C252.942 281.022 256.98 280.613 260.435 281.928C264.985 283.62 267.134 288.075 271.219 290.326C278.877 294.521 280.428 287.815 279.255 281.014C277.5 270.829 275.453 266.673 284.537 259.668C290.833 254.835 296.217 251.34 295.21 242.659C294.612 237.558 291.817 235.252 294.423 230.175C296.398 226.31 301.821 222.824 305.356 220.517C314.478 214.567 344.436 215.008 332.196 198.352C328.599 193.464 321.964 184.727 315.667 183.531C307.796 182.043 304.301 190.828 298.815 194.7C293.147 198.706 282.112 203.256 276.437 197.061C268.802 188.726 281.498 185.987 284.308 180.17C287.118 174.353 277.799 163.357 272.809 160.571L249.345 186.884C248.671 191.291 248.905 195.789 250.034 200.101C251.163 204.414 253.163 208.45 255.909 211.961C260.577 217.967 268.007 219.895 268.346 228.097C268.676 235.968 267.448 239.998 262.301 245.532C260.073 247.893 258.499 251.246 256.232 253.458C253.454 256.158 254.485 255.331 250.148 256.071C241.993 257.448 235.051 259.574 227.172 261.746C214.043 265.375 212.831 243.926 206.849 235.512L187.171 251.403C186.959 254.009 190.398 258.802 191.335 261.636C196.711 277.827 207.557 290.35 214.562 305.84C221.938 322.243 241.741 317.694 250.486 332.066C258.247 344.818 249.959 360.961 255.768 374.311C259.987 384 269.936 386.117 276.799 393.201C283.812 400.356 283.663 410.148 284.733 419.459C285.94 430.412 287.899 441.268 290.597 451.951C291.55 455.643 292.423 460.523 294.95 463.569C296.682 465.662 302.624 467.465 300.224 468.158C303.577 468.709 309.551 471.841 312.345 469.543C316.029 466.52 315.045 457.217 315.682 453.014C317.595 440.499 323.861 428.259 332.314 418.892C340.665 409.652 352.11 403.394 359.162 392.918C366.034 382.701 368.104 368.919 365.255 356.963ZM338.973 377.679C334.25 386.109 323.735 391.753 316.973 398.451C315.139 400.269 311.235 406.566 308.937 405.205C307.292 404.229 306.733 396.058 306.127 394.185C303 384.752 297.031 376.517 289.039 370.611C286.575 368.746 280.467 366.321 279.058 363.763C277.484 360.985 278.901 354.428 278.956 351.406C279.043 346.998 277.035 339.67 278.122 335.663C279.381 331.043 276.957 333.83 281.089 332.916C283.269 332.428 292.274 334.011 294.989 334.577C299.303 335.475 301.68 338.159 305.08 340.874C314.022 348.045 323.868 353.594 333.888 359.088C341.649 363.385 343.932 368.824 338.973 377.679ZM284.19 160.807C287.921 164.451 291.432 168.765 296.996 169.127C302.262 169.481 307.229 166.632 311.826 170.213C316.926 174.149 320.602 179.131 327.371 180.359C333.92 181.548 340.854 177.722 342.476 171.024C344.05 164.64 340.657 157.698 340.453 151.291C340.453 150.402 340.933 146.45 340.319 145.781C339.862 145.278 336.053 145.844 335.47 145.86C331.204 145.986 326.949 146.28 322.703 146.742C307.228 148.417 292.071 152.3 277.697 158.273C279.609 159.595 282.01 160.122 284.19 160.807ZM419.526 205.027C426.208 205.027 432.993 202.036 430.837 194.307C429.026 187.829 425.941 180.8 418.432 184.295C413.654 186.514 406.885 192.166 406.326 197.77C405.688 204.13 415.071 205.027 419.526 205.027ZM414.189 238.849C421.013 242.934 431.136 241.014 436.283 235.181C440.305 230.616 442.675 222.69 449.908 222.698C453.093 222.691 456.152 223.938 458.425 226.169C461.416 229.262 460.825 232.166 461.463 236.039C462.888 244.737 472.215 236.535 474.647 233.166C476.221 230.97 478.354 227.711 477.638 224.854C476.977 222.186 473.86 219.344 472.475 216.897C468.429 209.813 465.099 201.572 459.039 195.849C453.206 190.34 446.036 190.977 440.502 196.699C435.969 201.422 430.703 205.161 427.602 210.907C425.413 214.945 422.95 216.873 418.518 217.92C416.078 218.494 413.292 218.707 411.245 220.344C405.547 224.831 408.79 235.606 414.189 238.849Z"/>
</mask>
<path d="M489.712 243.493C477.071 243.572 478.315 266.894 462.565 255.89C456.717 251.813 453.12 245.886 445.776 244.083C439.361 242.509 432.789 244.146 426.452 245.24C419.25 246.484 410.71 247.043 405.248 252.498C399.966 257.748 397.172 264.792 391.552 270.074C380.682 280.306 376.093 291.475 383.13 305.942C389.899 319.85 404.059 327.399 419.337 326.407C434.347 325.407 449.94 316.702 449.507 338.513C449.349 346.226 450.963 351.579 453.332 358.749C455.528 365.361 455.379 371.768 455.882 378.592C456.811 391.344 459.157 405.638 465.485 416.901L477.292 400.246C478.748 398.184 481.794 395.295 482.518 392.863C483.801 388.557 481.275 381.158 480.983 376.333C480.692 371.508 480.834 366.62 480.094 361.796C479.055 355.034 475.056 348.698 474.505 342.015C473.49 329.571 475.765 319.638 466.178 309.232C456.921 299.197 443.352 296.788 430.388 298.827C423.855 299.85 397.558 304.053 408.113 289.122C410.199 286.186 413.843 283.777 416.188 280.983C418.227 278.551 419.998 274.08 422.391 272.183C424.784 270.286 435.772 268.106 438.92 269.074C442.069 270.042 445.351 274.584 448.082 276.599C453.129 280.399 459.017 282.927 465.249 283.966C476.001 285.54 498.481 279.291 498.308 265.501C498.276 258.889 492.137 249.68 489.712 243.493ZM365.255 356.963C361.059 339.3 337.06 333.397 324.12 323.818C316.682 318.308 310.062 309.799 300.294 309.106C295.792 308.784 292.022 309.76 287.559 308.603C283.466 307.548 280.255 305.344 275.894 305.919C267.747 306.989 262.608 315.695 253.855 314.514C245.551 313.396 236.995 303.683 235.106 295.773C232.682 285.603 240.726 282.305 249.345 281.4C252.942 281.022 256.98 280.613 260.435 281.928C264.985 283.62 267.134 288.075 271.219 290.326C278.877 294.521 280.428 287.815 279.255 281.014C277.5 270.829 275.453 266.673 284.537 259.668C290.833 254.835 296.217 251.34 295.21 242.659C294.612 237.558 291.817 235.252 294.423 230.175C296.398 226.31 301.821 222.824 305.356 220.517C314.478 214.567 344.436 215.008 332.196 198.352C328.599 193.464 321.964 184.727 315.667 183.531C307.796 182.043 304.301 190.828 298.815 194.7C293.147 198.706 282.112 203.256 276.437 197.061C268.802 188.726 281.498 185.987 284.308 180.17C287.118 174.353 277.799 163.357 272.809 160.571L249.345 186.884C248.671 191.291 248.905 195.789 250.034 200.101C251.163 204.414 253.163 208.45 255.909 211.961C260.577 217.967 268.007 219.895 268.346 228.097C268.676 235.968 267.448 239.998 262.301 245.532C260.073 247.893 258.499 251.246 256.232 253.458C253.454 256.158 254.485 255.331 250.148 256.071C241.993 257.448 235.051 259.574 227.172 261.746C214.043 265.375 212.831 243.926 206.849 235.512L187.171 251.403C186.959 254.009 190.398 258.802 191.335 261.636C196.711 277.827 207.557 290.35 214.562 305.84C221.938 322.243 241.741 317.694 250.486 332.066C258.247 344.818 249.959 360.961 255.768 374.311C259.987 384 269.936 386.117 276.799 393.201C283.812 400.356 283.663 410.148 284.733 419.459C285.94 430.412 287.899 441.268 290.597 451.951C291.55 455.643 292.423 460.523 294.95 463.569C296.682 465.662 302.624 467.465 300.224 468.158C303.577 468.709 309.551 471.841 312.345 469.543C316.029 466.52 315.045 457.217 315.682 453.014C317.595 440.499 323.861 428.259 332.314 418.892C340.665 409.652 352.11 403.394 359.162 392.918C366.034 382.701 368.104 368.919 365.255 356.963ZM338.973 377.679C334.25 386.109 323.735 391.753 316.973 398.451C315.139 400.269 311.235 406.566 308.937 405.205C307.292 404.229 306.733 396.058 306.127 394.185C303 384.752 297.031 376.517 289.039 370.611C286.575 368.746 280.467 366.321 279.058 363.763C277.484 360.985 278.901 354.428 278.956 351.406C279.043 346.998 277.035 339.67 278.122 335.663C279.381 331.043 276.957 333.83 281.089 332.916C283.269 332.428 292.274 334.011 294.989 334.577C299.303 335.475 301.68 338.159 305.08 340.874C314.022 348.045 323.868 353.594 333.888 359.088C341.649 363.385 343.932 368.824 338.973 377.679ZM284.19 160.807C287.921 164.451 291.432 168.765 296.996 169.127C302.262 169.481 307.229 166.632 311.826 170.213C316.926 174.149 320.602 179.131 327.371 180.359C333.92 181.548 340.854 177.722 342.476 171.024C344.05 164.64 340.657 157.698 340.453 151.291C340.453 150.402 340.933 146.45 340.319 145.781C339.862 145.278 336.053 145.844 335.47 145.86C331.204 145.986 326.949 146.28 322.703 146.742C307.228 148.417 292.071 152.3 277.697 158.273C279.609 159.595 282.01 160.122 284.19 160.807ZM419.526 205.027C426.208 205.027 432.993 202.036 430.837 194.307C429.026 187.829 425.941 180.8 418.432 184.295C413.654 186.514 406.885 192.166 406.326 197.77C405.688 204.13 415.071 205.027 419.526 205.027ZM414.189 238.849C421.013 242.934 431.136 241.014 436.283 235.181C440.305 230.616 442.675 222.69 449.908 222.698C453.093 222.691 456.152 223.938 458.425 226.169C461.416 229.262 460.825 232.166 461.463 236.039C462.888 244.737 472.215 236.535 474.647 233.166C476.221 230.97 478.354 227.711 477.638 224.854C476.977 222.186 473.86 219.344 472.475 216.897C468.429 209.813 465.099 201.572 459.039 195.849C453.206 190.34 446.036 190.977 440.502 196.699C435.969 201.422 430.703 205.161 427.602 210.907C425.413 214.945 422.95 216.873 418.518 217.92C416.078 218.494 413.292 218.707 411.245 220.344C405.547 224.831 408.79 235.606 414.189 238.849Z" fill="#357960" stroke="#357960" stroke-width="0.8" mask="url(#path-7-inside-1_0_1)"/>
</g>
<path d="M564.27 105.834C553.975 110.925 546.005 121.954 540.199 132.397C539.493 133.667 538.882 135.668 538.419 137.505C539.576 137.614 540.696 137.971 541.703 138.552C542.227 138.855 542.703 139.209 543.132 139.603L564.27 105.834ZM539.911 141.656C537.702 140.381 534.931 141.123 533.656 143.332C532.381 145.54 533.123 148.312 535.332 149.587C537.54 150.862 540.312 150.119 541.587 147.911C542.862 145.702 542.119 142.931 539.911 141.656ZM544.254 150.378C543.198 151.85 541.712 152.88 540.068 153.396L558.746 188.592C559.485 177.131 553.919 164.715 547.778 154.465C547.033 153.221 545.611 151.695 544.254 150.378ZM529.655 143.851L489.838 142.429C499.394 148.8 512.93 150.188 524.877 149.995C526.333 149.971 528.371 149.498 530.194 148.979C529.48 147.39 529.274 145.587 529.655 143.851ZM536.791 153.734C535.645 153.622 534.537 153.266 533.54 152.69C532.543 152.115 531.68 151.333 531.01 150.397L509.593 184.612L517.869 189.39L536.791 153.734Z" fill="#0CABBA"/>
<path d="M516.563 523.853C507.756 517.381 502.109 505.729 498.393 494.982C497.941 493.675 497.7 491.699 497.569 489.901C498.672 489.99 499.781 489.841 500.82 489.462C501.361 489.265 501.866 489.012 502.333 488.713L516.563 523.853ZM499.653 486.258C497.373 487.088 494.899 485.934 494.068 483.653C493.238 481.373 494.392 478.898 496.673 478.068C498.953 477.238 501.428 478.392 502.258 480.673C503.088 482.953 501.934 485.428 499.653 486.258ZM505.165 478.801C504.419 477.248 503.196 476.037 501.741 475.281L525.061 445.383C523.86 456.247 516.592 466.963 509.143 475.554C508.239 476.597 506.654 477.791 505.165 478.801ZM490.405 482.505L452.855 477.259C462.863 472.867 475.778 473.803 486.943 475.959C488.303 476.221 490.135 477.002 491.758 477.789C490.826 479.161 490.335 480.816 490.405 482.505ZM498.726 474.423C497.633 474.339 496.536 474.489 495.506 474.864C494.477 475.238 493.539 475.829 492.757 476.595L478.339 440.992L486.885 437.881L498.726 474.423Z" fill="#0CABBA"/>
<path d="M188.46 526.926C185.874 516.308 189.038 503.752 193.099 493.131C193.593 491.839 194.679 490.17 195.734 488.709C196.522 489.486 197.467 490.084 198.506 490.462C199.048 490.659 199.597 490.789 200.147 490.861L188.46 526.926ZM199.673 487.258C197.392 486.428 196.238 483.953 197.068 481.673C197.898 479.392 200.373 478.238 202.653 479.068C204.934 479.898 206.088 482.373 205.258 484.653C204.428 486.934 201.953 488.088 199.673 487.258ZM208.688 485.089C209.115 483.419 208.957 481.705 208.327 480.191L245.409 472.278C237.506 479.827 225.051 483.364 213.822 485.158C212.46 485.376 210.477 485.272 208.688 485.089ZM195 478.439L169.607 450.283C180.097 453.352 189.389 462.37 196.556 471.198C197.429 472.273 198.331 474.049 199.068 475.695C197.472 476.147 196.032 477.099 195 478.439ZM206.569 477.595C205.787 476.829 204.849 476.239 203.82 475.864C202.79 475.489 201.693 475.338 200.601 475.422L212.442 438.881L220.987 441.992L206.569 477.595Z" fill="#0CABBA"/>
<path d="M121.82 430.853C123.588 422.014 130.329 413.732 137.067 407.209C137.886 406.415 139.279 405.546 140.578 404.822C140.895 405.677 141.394 406.453 142.039 407.098C142.375 407.434 142.74 407.723 143.126 407.969L121.82 430.853ZM144.027 405.11C142.612 403.694 142.612 401.443 144.027 400.027C145.443 398.612 147.694 398.612 149.11 400.027C150.525 401.443 150.525 403.694 149.11 405.11C147.694 406.525 145.443 406.525 144.027 405.11ZM151.522 406.631C152.423 405.531 152.902 404.195 152.959 402.844L183.436 409.854C174.897 412.743 164.354 411.045 155.336 408.472C154.241 408.16 152.796 407.391 151.522 406.631ZM143.609 396.889L134.442 366.993C141.213 372.943 145.015 382.922 147.295 392.019C147.573 393.127 147.628 394.769 147.606 396.256C146.255 396.038 144.847 396.248 143.609 396.889ZM152.55 400.291C152.232 399.445 151.737 398.678 151.098 398.039C150.46 397.4 149.692 396.905 148.846 396.586L170.433 373.4L175.737 378.704L152.55 400.291Z" fill="#0CABBA"/>
<path d="M218.922 130.515L226.005 142.784M226.005 142.784L235.207 137.471M226.005 142.784L216.804 148.096M191.538 97.2508L206.653 137.599M203.806 90.1675L231.191 123.432M234.368 97.0601L182.226 127.164M208.944 87.2013L186.4 100.217C181.91 102.809 179.665 104.106 178.66 106.375C177.65 108.642 178.108 111.368 179.029 116.811L180.54 125.753C182.418 136.868 183.356 142.424 187.262 144.479C191.164 146.541 195.75 143.894 204.914 138.603L232.93 122.428C242.095 117.137 246.677 114.491 246.848 110.077C247.018 105.669 242.676 102.078 233.989 94.8947L227 89.1149C222.744 85.5971 220.615 83.8366 218.147 83.577C215.682 83.3108 213.434 84.6088 208.944 87.2013Z" stroke="#F4BD1A" stroke-width="2" stroke-linecap="round" stroke-linejoin="round"/>
<path d="M473.755 130.515L466.672 142.783M466.672 142.783L475.874 148.096M466.672 142.783L457.471 137.471M488.871 90.1668L461.487 123.431M501.14 97.2502L486.024 137.598M510.451 127.164L458.309 97.0595M506.277 100.216L483.734 87.2007C479.243 84.6082 476.998 83.3119 474.531 83.5764C472.062 83.836 469.93 85.5947 465.677 89.1142L458.689 94.8941C450.002 102.078 445.659 105.668 445.832 110.079C445.997 114.489 450.583 117.136 459.748 122.427L487.763 138.602C496.928 143.893 501.51 146.539 505.418 144.481C509.321 142.424 510.259 136.868 512.137 125.753L513.648 116.81C514.567 111.366 515.027 108.642 514.017 106.374C513.016 104.107 510.768 102.809 506.277 100.216Z" stroke="#F4BD1A" stroke-width="2" stroke-linecap="round" stroke-linejoin="round"/>
<path d="M511.069 419.386L502.466 407.098M502.466 407.098L511.681 400.646M502.466 407.098L493.25 413.551M530.736 460.549L498.782 427.989M543.024 451.946L523.356 410.782M550.085 419.534L497.864 456.099M548.169 448.343L525.591 464.152C521.094 467.301 518.845 468.875 516.218 468.824C513.591 468.778 511.18 467.12 506.369 463.8L498.464 458.348C488.638 451.572 483.726 448.186 483.502 443.518C483.269 438.851 487.862 435.636 497.04 429.209L525.098 409.562C534.277 403.135 538.866 399.922 543.178 401.732C547.485 403.542 548.987 409.316 551.993 420.866L554.412 430.16C555.884 435.818 556.621 438.648 555.765 441.133C554.918 443.617 552.666 445.194 548.169 448.343Z" stroke="#F4BD1A" stroke-width="2" stroke-linecap="round" stroke-linejoin="round"/>
<path d="M135.047 341.09L148.791 378.852M135.047 341.09L163.368 330.782L177.112 368.543L148.791 378.852M135.047 341.09L137.795 348.642L132.131 350.704L129.382 343.152L135.047 341.09ZM148.791 378.852L143.126 380.913L140.378 373.361L146.042 371.299L148.791 378.852ZM155.225 370.095L153.164 364.431M147.666 349.326L145.604 343.662M151.362 368.294L157.027 366.232" stroke="#0CABBA" stroke-width="3" stroke-linecap="round" stroke-linejoin="round"/>
<path d="M565.211 214.747L534.38 178.005M565.211 214.747L537.654 237.87L506.824 201.128L534.38 178.005M565.211 214.747L559.045 207.399L564.556 202.774L570.722 210.122L565.211 214.747ZM534.38 178.005L539.892 173.38L546.058 180.729L540.546 185.353L534.38 178.005ZM530.738 190.453L535.362 195.964M547.695 210.661L552.319 216.172M535.806 190.896L530.294 195.521" stroke="#0CABBA" stroke-width="4" stroke-linecap="round" stroke-linejoin="round"/>
<path d="M215.25 486.104V526.938M215.25 486.104H245.875V526.938H215.25M215.25 486.104V494.271H209.125V486.104H215.25ZM215.25 526.938H209.125V518.771H215.25V526.938ZM224.438 520.812V514.687M224.438 498.354V492.229M221.375 517.75H227.5" stroke="#0CABBA" stroke-width="3" stroke-linecap="round" stroke-linejoin="round"/>
<g filter="url(#filter0_d_0_1)">
<path d="M352.446 0C346.97 8.21484 345.777 19.8508 345.943 30.1211C345.963 31.3704 346.368 33.1229 346.813 34.6889C347.722 34.2727 348.709 34.0573 349.708 34.0574C350.228 34.0574 350.735 34.1166 351.224 34.2254L352.446 0ZM349.708 37.1379C347.516 37.1379 345.772 38.8819 345.772 41.0742C345.772 43.2666 347.516 45.0105 349.708 45.0105C351.9 45.0105 353.644 43.2666 353.644 41.0742C353.644 38.8819 351.9 37.1379 349.708 37.1379ZM356.691 41.7644C356.537 43.314 355.873 44.7197 354.871 45.8108L383.904 63.9851C379.528 55.1346 370.048 48.2838 361.071 43.2922C359.981 42.6864 358.266 42.1618 356.691 41.7644ZM343.017 43.1805L312.763 59.2359C322.615 59.8715 333.289 55.0869 342.1 49.8076C343.174 49.1645 344.488 47.936 345.622 46.7664C344.407 45.8898 343.479 44.6362 343.017 43.1805ZM352.577 47.471C351.676 47.8796 350.698 48.091 349.708 48.0911C348.719 48.0912 347.74 47.88 346.839 47.4715L343.017 108H352.577V47.471Z" fill="#0CABBA"/>
<path d="M345.993 30.1203C345.828 19.9133 347.006 8.36848 352.39 0.175659L351.176 34.1638C350.702 34.0624 350.211 34.0074 349.708 34.0074C348.721 34.0073 347.746 34.216 346.846 34.6194C346.407 33.068 346.013 31.3477 345.993 30.1203ZM345.822 41.0742C345.822 38.9095 347.543 37.1879 349.708 37.1879C351.873 37.1879 353.594 38.9095 353.594 41.0742C353.594 43.2389 351.873 44.9605 349.708 44.9605C347.543 44.9605 345.822 43.2389 345.822 41.0742ZM383.78 63.8485L354.948 45.8002C355.923 44.7215 356.572 43.3441 356.735 41.8271C358.294 42.2227 359.976 42.7407 361.046 43.3359C369.968 48.2967 379.377 55.0892 383.78 63.8485ZM345.546 46.7729C344.421 47.9299 343.13 49.1328 342.075 49.7647C333.317 55.0114 322.73 59.7632 312.943 59.1968L342.988 43.2526C343.453 44.6759 344.362 45.9035 345.546 46.7729ZM349.708 48.1411C350.679 48.141 351.639 47.939 352.527 47.5481V107.95H343.07L346.884 47.5466C347.774 47.9386 348.736 48.1412 349.708 48.1411Z" stroke="#0CABBA" stroke-width="0.1"/>
</g>
<g opacity="0.5">
<path d="M431.568 31.9299C423.528 38.9959 419.014 50.8467 416.306 61.6485C415.976 62.9625 415.909 64.9115 415.936 66.6763C417.004 66.4953 418.098 66.5468 419.144 66.8272C419.689 66.9732 420.203 67.1773 420.685 67.4285L431.568 31.9299ZM418.28 70.0532C415.984 69.438 413.668 70.775 413.053 73.0708C412.438 75.3667 413.775 77.6824 416.071 78.2975C418.367 78.9127 420.682 77.5758 421.298 75.2799C421.913 72.984 420.576 70.6684 418.28 70.0532ZM424.294 76.8575C423.698 78.4372 422.609 79.723 421.253 80.5844L446.558 107.764C444.458 97.2674 436.453 87.4328 428.452 79.6865C427.481 78.7463 425.833 77.7158 424.294 76.8575ZM409.577 74.5036L373.389 82.8277C383.528 86.258 396.049 84.2425 406.758 81.1864C408.063 80.8142 409.783 79.8964 411.299 78.9899C410.273 77.731 409.653 76.1578 409.577 74.5036ZM418.385 81.6793C417.326 81.8543 416.243 81.8012 415.206 81.5236C414.17 81.2461 413.205 80.7504 412.376 80.0697L401.348 116.037L409.951 118.342L418.385 81.6793Z" fill="#0CABBA"/>
</g>
<g opacity="0.5">
<path d="M261.517 30.3931C258.087 40.5326 260.103 53.0528 263.159 63.7615C263.531 65.0642 264.447 66.7857 265.352 68.3008C266.187 67.6101 267.16 67.1075 268.206 66.8272C268.751 66.6812 269.298 66.601 269.841 66.5778L261.517 30.3931ZM269.071 70.0532C266.775 70.6684 265.438 72.984 266.053 75.2799C266.668 77.5758 268.984 78.9127 271.28 78.2975C273.576 77.6824 274.913 75.3667 274.298 73.0709C273.682 70.775 271.367 69.438 269.071 70.0532ZM277.681 72.9389C277.955 74.6046 277.655 76.2631 276.911 77.6868L312.415 88.5726C305.349 80.5321 293.499 76.0179 282.697 73.3098C281.386 72.981 279.443 72.9129 277.681 72.9389ZM263.759 78.2586L236.581 103.562C247.078 101.463 256.913 93.457 264.659 85.456C265.603 84.4812 266.634 82.8261 267.494 81.2828C265.976 80.7058 264.652 79.6534 263.759 78.2586ZM274.975 80.0692C274.146 80.75 273.181 81.2459 272.144 81.5236C271.108 81.8014 270.024 81.8547 268.966 81.6799L277.4 118.342L286.002 116.037L274.975 80.0692Z" fill="#0CABBA"/>
</g>
<path d="M579.853 426.317C571.014 424.55 562.732 417.808 556.209 411.07C555.415 410.251 554.546 408.858 553.822 407.559C554.677 407.242 555.453 406.743 556.098 406.098C556.434 405.763 556.723 405.397 556.969 405.011L579.853 426.317ZM554.11 404.11C552.694 405.525 550.443 405.525 549.027 404.11C547.612 402.694 547.612 400.443 549.027 399.027C550.443 397.612 552.694 397.612 554.11 399.027C555.525 400.443 555.525 402.694 554.11 404.11ZM555.631 396.615C554.531 395.714 553.195 395.235 551.844 395.178L558.854 364.702C561.743 373.24 560.045 383.783 557.472 392.801C557.16 393.896 556.391 395.341 555.631 396.615ZM545.889 404.528L515.993 413.695C521.943 406.924 531.922 403.122 541.019 400.842C542.127 400.564 543.769 400.509 545.256 400.531C545.038 401.882 545.248 403.29 545.889 404.528ZM549.291 395.587C548.445 395.905 547.678 396.4 547.039 397.039C546.4 397.677 545.905 398.445 545.586 399.291L522.4 377.704L527.704 372.4L549.291 395.587Z" fill="#0CABBA"/>
<path d="M192.276 424.386L200.88 412.098M200.88 412.098L210.096 418.551M200.88 412.098L191.665 405.645M160.322 456.946L179.989 415.782M172.609 465.549L204.564 432.989M205.481 461.099L153.26 424.534M177.754 469.152L155.177 453.343C150.679 450.194 148.431 448.619 147.581 446.133C146.725 443.648 147.459 440.815 148.933 435.16L151.352 425.866C154.359 414.316 155.861 408.542 160.171 406.734C164.476 404.92 169.069 408.135 178.247 414.562L206.305 434.209C215.484 440.636 220.073 443.849 219.847 448.52C219.62 453.186 214.708 456.572 204.882 463.348L196.976 468.8C192.163 472.118 189.755 473.778 187.127 473.824C184.503 473.878 182.252 472.301 177.754 469.152Z" stroke="#F4BD1A" stroke-width="2" stroke-linecap="round" stroke-linejoin="round"/>
<path d="M419.227 518.146H419.277V518.096V502.609C419.277 468.261 439.585 441.4 461.208 412.801C462.687 410.844 464.173 408.88 465.658 406.904C488.854 376.052 512.059 342.503 512.059 295.022C512.059 249.29 495.617 211.241 466.908 184.625C438.199 158.01 397.227 142.831 348.174 142.831C299.126 142.831 258.222 158.01 229.58 184.625C200.937 211.241 184.56 249.29 184.56 295.022C184.56 342.503 207.7 376.052 230.83 406.904C232.312 408.879 233.793 410.844 235.268 412.801C256.83 441.4 277.081 468.26 277.081 502.609V518.096V518.146H277.131H419.227ZM444.145 555.756H252.214C247.846 555.756 244.215 554.448 241.675 552.086C239.136 549.724 237.684 546.303 237.684 542.067V502.098C237.684 486.97 231.863 473.19 223.137 459.345C216.922 449.484 209.23 439.586 201.115 429.144C197.838 424.928 194.493 420.623 191.148 416.196C167.887 385.412 144.631 348.704 144.631 294.766C144.631 237.942 164.972 190.552 200.582 157.367C236.193 124.182 287.078 105.2 348.174 105.2C409.269 105.2 460.222 124.182 495.901 157.366C531.579 190.549 551.987 237.937 551.987 294.756C551.987 348.698 528.667 385.409 505.341 416.195C501.986 420.623 498.631 424.929 495.344 429.146C487.207 439.587 479.495 449.484 473.262 459.345C464.512 473.19 458.674 486.97 458.674 502.098V542.067C458.674 546.303 457.287 549.724 454.781 552.086C452.274 554.448 448.643 555.756 444.145 555.756ZM434.338 623.215H262.02C248.518 623.215 237.684 612.758 237.684 599.784C237.684 586.831 248.53 576.353 262.02 576.353H434.327C447.829 576.353 458.674 586.82 458.674 599.784C458.674 612.747 447.829 623.215 434.338 623.215ZM413.064 643.555C411.727 655.626 404.653 665.586 393.349 672.533C382.027 679.491 366.462 683.425 348.174 683.425C329.755 683.425 314.125 679.491 302.803 672.533C291.499 665.586 284.49 655.626 283.283 643.555H413.064Z" fill="#357960" stroke="#357960" stroke-width="0.1"/>
<defs>
<filter id="filter0_d_0_1" x="308.763" y="0" width="79.1419" height="116" filterUnits="userSpaceOnUse" color-interpolation-filters="sRGB">
<feFlood flood-opacity="0" result="BackgroundImageFix"/>
<feColorMatrix in="SourceAlpha" type="matrix" values="0 0 0 0 0 0 0 0 0 0 0 0 0 0 0 0 0 0 127 0" result="hardAlpha"/>
<feOffset dy="4"/>
<feGaussianBlur stdDeviation="2"/>
<feComposite in2="hardAlpha" operator="out"/>
<feColorMatrix type="matrix" values="0 0 0 0 0 0 0 0 0 0 0 0 0 0 0 0 0 0 0.25 0"/>
<feBlend mode="normal" in2="BackgroundImageFix" result="effect1_dropShadow_0_1"/>
<feBlend mode="normal" in="SourceGraphic" in2="effect1_dropShadow_0_1" result="shape"/>
</filter>
</defs>
</svg>
